<svg id="Layer_1" data-name="Layer 1" xmlns="http://www.w3.org/2000/svg" viewBox="0 0 52.24 52.24"><defs><style>.cls-1,.cls-2{fill:none;stroke-miterlimit:10;stroke-width:1.5px;}.cls-1{stroke:#12100b;}.cls-2{stroke:#020202;}</style></defs><title>Untitled-1</title><path class="cls-1" d="M48.51,50.33a.31.31,0,0,1-.3.3H3.52a.3.3,0,0,1-.3-.3V18.75a.68.68,0,0,1,.24-.48L25.62,1.94a.44.44,0,0,1,.49,0L48.27,18.27a.68.68,0,0,1,.24.48Z"/><path class="cls-2" d="M28.67,31.52a2.81,2.81,0,1,1-2.81-2.86A2.83,2.83,0,0,1,28.67,31.52Z"/><path class="cls-2" d="M28.77,22.49a2.91,2.91,0,1,1-2.91-3A2.94,2.94,0,0,1,28.77,22.49Z"/><path class="cls-2" d="M20.39,28.81a2.91,2.91,0,1,1-2.91-3A2.94,2.94,0,0,1,20.39,28.81Z"/><ellipse class="cls-2" cx="20.98" cy="39.14" rx="2.91" ry="2.96"/><ellipse class="cls-2" cx="30.73" cy="39.14" rx="2.91" ry="2.96"/><path class="cls-2" d="M37.15,28.81a2.91,2.91,0,1,1-2.91-3A2.94,2.94,0,0,1,37.15,28.81Z"/><line class="cls-2" x1="24.37" y1="33.92" x2="22.58" y2="36.67"/><line class="cls-2" x1="27.34" y1="33.92" x2="29.13" y2="36.67"/><line class="cls-2" x1="23.16" y1="30.71" x2="19.93" y2="29.76"/><line class="cls-2" x1="28.57" y1="30.71" x2="31.33" y2="29.78"/><line class="cls-2" x1="25.86" y1="28.66" x2="25.86" y2="25.46"/></svg>